<svg width="55" height="56" viewBox="0 0 55 56" fill="none" xmlns="http://www.w3.org/2000/svg">
<path d="M38.1518 37.6684C38.6066 37.8634 39.1047 37.7551 39.4729 37.4302C39.7977 37.1487 41.3353 35.741 41.92 35.3945C42.6563 34.9614 43.2194 27.5765 43.2194 27.5982C43.2627 27.165 43.1111 26.7319 42.8079 26.4287C39.841 23.4185 39.6894 23.0286 36.1594 22.5955C35.1848 22.4656 34.5352 22.5089 34.4053 22.7255C33.8638 23.5917 36.311 25.1726 38.2384 25.1726C38.9747 25.1726 41.2486 27.5765 41.0321 28.1179C40.8805 28.4861 40.9454 30.8466 40.9238 33.4454L39.9492 33.9435C39.4078 34.2251 38.7365 34.7232 38.455 35.0913C37.9569 35.7194 37.9136 35.7194 37.069 35.2213C36.2677 34.7448 34.8816 34.7665 34.8816 35.2646C34.8816 35.6977 36.5925 37.0621 37.7187 37.5168L38.1518 37.6684Z" fill="#000001"/>
<path d="M48.2222 19.26C48.2438 18.5887 47.9406 17.939 47.4208 17.5275C46.4463 16.7695 45.3851 16.6829 44.8654 17.2893C43.2195 19.2817 36.5926 18.567 29.9441 15.665C25.3746 13.6726 20.0904 12.7847 15.5425 13.2395C5.66713 14.214 6.68498 14.4523 7.63787 38.6426L8.69902 39.184C9.73853 39.7254 9.82511 39.7254 12.7704 39.0757C17.4699 38.0362 25.1363 38.1228 29.5976 39.2273C33.604 40.2235 34.427 40.0503 32.7811 38.491C29.7492 35.6323 17.6648 33.9864 12.7704 35.7839C11.7742 36.1521 10.8431 36.4336 10.6915 36.4336C10.1717 36.4336 11.1462 29.915 10.6481 16.423C10.6698 16.423 20.8916 13.5427 28.493 17.4192C32.6078 19.5199 37.6321 20.8842 41.4004 20.9059H45.0603C45.0603 38.5126 45.2119 40.3535 44.5839 40.3535C44.3024 40.3535 42.5915 40.1585 40.7723 39.9203C37.2423 39.4655 36.7442 39.5522 37.4588 40.57C38.1518 41.5446 42.5049 42.6057 45.2336 42.7357C47.7458 42.8656 47.4425 42.4974 47.5508 40.9598C47.6591 39.0757 47.5508 40.57 48.2222 19.26Z" fill="#000001"/>
<path d="M15.1742 20.971C15.8455 20.7977 16.9934 19.8232 17.1883 19.2601C17.2749 18.9786 18.0762 19.0002 20.5451 19.2818C26.6522 19.9964 23.8368 17.4626 22.6674 17.1378C21.303 16.748 19.1807 16.8996 16.7552 17.2677C16.3004 17.3327 15.759 17.6792 15.5641 18.0474C15.3692 18.4155 14.3729 19.0219 13.6799 19.7366C11.7958 21.6207 11.6009 31.0413 13.42 31.3228C14.9143 31.5394 15.4124 31.7343 16.1704 32.4489C17.1016 33.2936 17.2099 33.2069 23.382 33.2069C24.2266 33.2069 24.6814 31.1279 19.3755 30.9113C17.1882 30.8247 16.7118 30.6948 15.9322 30.0451C15.4341 29.6336 14.8927 29.2871 14.7411 29.2871C14.0697 29.2871 14.5028 21.1226 15.1742 20.971Z" fill="#000001"/>
<path d="M28.0814 32.644C28.3197 32.3408 28.4929 31.1713 28.4929 31.063C28.4929 30.9548 29.1426 30.9981 29.8573 30.8032C32.4994 30.0885 32.4344 26.8833 29.749 25.3674C29.0127 24.9559 26.3273 24.8043 26.6954 23.1584C26.9553 21.9456 27.8649 22.3571 28.8394 22.8336C29.5108 23.1368 30.0955 23.4833 30.6802 23.7864C31.7197 24.3279 31.6981 22.9418 31.0051 22.3571C30.5719 21.989 29.9439 21.6208 29.3159 21.3393C29.186 21.2743 29.4457 20.6463 29.2292 20.1915C28.7744 19.2602 27.4751 18.8488 27.4751 19.6501C27.4751 19.7583 27.2801 20.6246 27.2801 20.6246C27.2584 20.6246 24.9629 19.5634 24.0967 22.1189C23.6635 23.3966 24.2049 25.2591 25.8292 25.7572C27.1286 26.1687 29.4891 26.5801 29.3159 27.9228C29.0777 29.7853 25.9158 28.5076 25.8941 28.5076C23.6418 27.9445 22.1043 28.6808 24.768 29.8719C25.2228 30.0885 26.2406 30.3484 26.4572 30.5433C26.6738 30.7382 26.4355 31.9726 26.4355 32.1892C26.4788 33.1421 27.5617 33.3586 28.0814 32.644Z" fill="#000001"/>
</svg>
