<svg width="55" height="56" viewBox="0 0 55 56" fill="none" xmlns="http://www.w3.org/2000/svg">
<path fill-rule="evenodd" clip-rule="evenodd" d="M15.757 10.1334C13.2885 10.5465 14.9501 12.2232 16.9912 12.5148C18.7002 12.7578 21.9756 12.7578 29.025 12.7335C37.6171 12.7092 41.296 12.8064 41.842 13.0494C43.1949 13.6812 43.7884 16.1112 44.1682 22.6964C44.3106 25.0291 44.5953 28.5283 44.8089 30.4722C45.4735 36.7172 44.8565 37.3247 37.0476 37.6406C34.0331 37.7621 30.1168 38.0051 28.3604 38.1752C20.1481 38.9771 15.0449 38.8312 12.1967 37.6649C9.82315 36.6929 9.94188 35.9153 9.87067 34.2872C9.70452 31.1283 9.77571 24.6889 10.0842 18.8327C10.3453 13.9242 10.6539 12.9522 12.1967 12.2232C13.146 11.7858 12.8138 11.2755 11.6271 11.3241C9.84692 11.4213 8.47029 12.0288 8.20921 14.8719C7.87691 18.371 5.7644 37.592 9.56204 39.2201C12.0542 40.2893 16.3978 41.3341 18.1067 41.3341C19.2935 41.3341 19.2461 42.6949 18.0593 43.0594C15.3298 43.8613 17.2523 45.8053 20.86 45.9511C28.1705 46.194 38.8515 45.5866 38.9464 44.8819C39.0414 44.1772 37.4985 42.5734 36.6915 42.5734C36.4304 42.5734 36.2642 42.2575 36.2642 41.7958C36.2642 41.1397 36.2643 40.2163 37 40.2163C40.1568 40.2163 41.842 40.0705 42.7914 39.8518C47.4197 38.8312 47.6097 35.6237 47.5623 33.7527C47.3961 26.0983 45.9957 18.7841 45.9957 17.0589C45.972 14.07 44.2631 11.1297 40.6078 10.5951C39.1838 10.1577 18.2017 9.72033 15.757 10.1334ZM28.1468 25.0048C27.862 24.6889 25.1087 21.5543 24.3492 20.7524C23.3998 19.7561 22.4266 20.072 20.3853 21.9916C19.341 22.9879 17.7033 24.4702 16.7301 25.3207C13.3598 28.2367 13.0986 29.5488 15.8756 29.5488C16.8251 29.5488 17.2761 29.2086 20.1006 26.2441C23.7558 22.4047 23.4235 22.429 26.6041 25.588C28.7402 27.702 28.4791 27.7264 31.9445 24.9562C34.9351 22.1132 36.6441 20.2178 38.8039 18.0065C40.9401 15.8196 37.6646 14.8233 35.932 16.3298C33.8907 18.0551 28.1705 24.9805 28.1468 25.0048ZM35.837 23.8627C35.4098 24.9805 35.6234 32.4405 36.0981 32.9022C37.2612 34.0929 37.9732 31.5414 37.902 26.4871C37.8546 23.6926 36.5254 22.016 35.837 23.8627ZM22.0943 26.9002C21.3586 28.8928 21.9756 34.3359 23.471 34.0686C24.9662 33.8013 23.9457 27.7992 23.6134 26.9245C23.3998 26.2927 22.3316 26.2684 22.0943 26.9002ZM31.7545 27.459C31.351 27.9693 30.9476 31.7358 31.2087 32.7564C31.6597 34.5788 33.5347 33.777 33.5347 31.7601C33.5347 28.3825 32.6802 26.317 31.7545 27.459ZM18.2492 30.0591C17.8932 30.4236 18.0355 33.1452 18.4627 33.7283C19.2223 34.7975 19.8869 34.1172 19.8869 32.2461C19.8631 30.3021 19.0561 29.2087 18.2492 30.0591ZM26.4378 30.0591C25.8207 30.6909 26.2479 33.2909 27.0075 33.6554C28.218 34.2143 28.6215 32.6835 27.8857 30.2535C27.767 29.8161 26.7939 29.6946 26.4378 30.0591ZM32.5616 40.6295C33.511 40.8968 33.155 41.7715 33.25 42.5734L22.2842 42.7678C22.2842 42.6949 22.4742 40.7752 22.4742 40.8967C23.2336 40.8724 30.1881 40.5809 31.1375 40.508C31.5173 40.4594 32.1818 40.5323 32.5616 40.6295Z" fill="#006B99"/>
</svg>
