<svg width="55" height="56" viewBox="0 0 55 56" fill="none" xmlns="http://www.w3.org/2000/svg">
<path fill-rule="evenodd" clip-rule="evenodd" d="M30.2919 6.92895C25.5527 9.337 14.8701 21.2236 11.3861 27.8842C9.28544 31.9062 9.54169 32.1367 16.3303 32.521L21.1721 32.8028C12.3852 48.1733 13.2818 46.5338 13.2049 46.6875C11.2836 49.9922 13.8966 52.1953 16.6633 49.6079C16.6889 49.5823 40.4364 31.1376 44.689 25.015C45.1757 24.3233 45.0477 23.5292 43.9717 22.735C42.2041 21.4285 39.8217 21.0186 31.1373 20.3014C29.7795 20.1989 29.1648 20.0452 29.2672 19.8403C29.9077 18.2776 32.3669 11.7194 33.5453 9.15767C34.9287 6.16041 34.8006 4.62336 30.2919 6.92895ZM28.5242 12.6673C28.2937 13.2053 25.4501 20.0196 25.322 20.3014C24.656 21.6335 25.0915 22.3252 26.7566 22.5045C32.29 23.0937 34.4931 23.2986 36.7219 23.4011C40.4108 23.5804 40.4365 23.4267 36.5426 27.3462C32.3926 31.5475 21.7869 41.2822 21.5563 41.0516C21.3514 40.8467 24.7585 34.3398 25.6808 33.1358C27.3459 30.9583 26.8335 30.6509 21.5307 30.6509C19.1482 30.6509 17.6624 30.5996 16.5352 30.5228C15.4849 30.4459 14.8444 29.3188 15.3568 28.3709C17.2781 24.8613 20.7109 20.4807 26.4237 14.2044C29.0367 11.3864 29.0878 11.3352 28.5242 12.6673Z" fill="#000001"/>
</svg>
