<svg width="55" height="56" viewBox="0 0 55 56" fill="none" xmlns="http://www.w3.org/2000/svg">
<path fill-rule="evenodd" clip-rule="evenodd" d="M36.5585 11.5282C34.7552 12.3407 33.7841 13.926 33.6454 16.2644C33.4671 19.3954 32.7536 20.4655 31.9412 18.8405C28.9885 13.0145 18.8425 11.3697 17.812 16.5616C17.6931 17.1165 17.6733 17.1165 16.3852 17.1165C10.7177 17.0768 7.44803 28.2335 11.5104 33.7623C11.7878 34.1389 11.3915 35.4666 10.2223 38.0625C9.5684 39.5091 9.64765 39.7469 10.797 40.2622C11.8473 40.7378 12.1842 40.2424 14.2847 35.0901C14.6018 34.3172 14.6018 33.4453 14.2847 32.6724C13.8091 31.5231 13.2344 30.2548 12.7787 29.4027C11.2726 26.4501 12.2634 22.2886 15.0774 19.7917C17.6535 17.5128 20.2891 19.3954 18.03 21.9121C14.9188 25.3601 17.8715 29.5414 22.4491 28.1741C26.5511 26.9653 26.7096 21.2383 22.6671 20.1484C20.5269 19.5737 19.6153 16.5616 21.2402 15.4717C25.2828 12.737 30.3162 18.3451 29.7812 25.0034C29.5038 28.4713 32.9915 26.886 32.9915 24.508C32.9915 23.8937 33.15 23.5568 33.7842 22.8236C35.1317 21.2581 35.7658 19.6134 36.0631 16.7796C36.3405 14.1638 39.7489 11.984 40.7199 13.8071C41.3343 14.9565 40.3632 21.0996 39.2733 22.8633C38.4013 24.2901 35.31 27.7976 34.3191 28.4713C33.0311 29.3433 33.1699 30.0963 34.6957 30.3539C35.4488 30.4728 35.5677 30.4332 36.9746 29.264C40.4822 26.351 41.5919 24.9242 42.4242 22.1895C43.0187 20.2475 43.8906 20.6834 43.9104 22.7047C43.9302 26.8464 39.5904 31.6816 35.4289 33.3858C34.4381 33.802 34.3786 34.2578 35.2307 34.8919C36.499 35.8233 38.758 34.8523 41.354 32.2563C42.979 30.6313 43.0583 30.5917 42.8799 31.2456C41.9089 35.0108 38.7779 38.122 34.7948 39.2912C32.1592 40.064 29.702 40.6189 27.859 40.8567C27.6014 40.9359 26.0359 40.8765 24.728 42.2636C22.8058 44.3047 25.7585 45.9297 26.7691 44.3047C27.5222 43.0761 27.7599 42.9572 29.2264 42.9374C30.673 42.9374 30.7522 42.9176 34.8542 41.7682C38.3419 40.7972 40.4029 39.7866 41.8891 38.34C45.0201 35.2684 46.328 30.8295 44.7031 28.6893C44.3464 28.2137 44.3463 28.1939 44.921 26.9455C46.0902 24.4486 45.8128 21.159 44.2671 19.2963C43.7122 18.6225 43.6726 18.4442 43.6132 16.8192C43.5339 12.9748 39.7093 10.1014 36.5585 11.5282ZM22.35 21.3572C23.9948 22.1895 23.0238 26.4897 21.1016 26.9653C20.4278 27.1436 17.4355 25.5979 19.7738 22.3679C20.8439 20.8816 21.161 20.7429 22.35 21.3572Z" fill="#000001"/>
</svg>
