<svg width="56" height="56" viewBox="0 0 56 56" fill="none" xmlns="http://www.w3.org/2000/svg">
<path fill-rule="evenodd" clip-rule="evenodd" d="M19.9637 8.71542C13.5813 9.94914 10.3009 14.8384 10.3009 23.2231C10.2786 31.8135 18.7364 37.0911 27.4396 33.9154L29.0464 33.3214C30.3631 34.7379 30.5863 34.7379 29.1804 35.606C28.0646 36.2914 28.176 36.9997 28.8902 37.2738C29.8497 37.6394 35.6744 43.3739 36.4555 44.7676C39.3342 49.9081 46.52 48.1032 46.0291 44.0822C45.8059 42.2544 44.4445 40.1297 42.8377 38.6218C41.0525 36.9312 40.0483 35.5603 38.7317 33.0015C37.4596 30.5112 36.3216 29.9629 34.6701 30.991C33.956 31.4251 33.889 31.4479 33.5096 31.0824C32.7286 30.3741 32.7732 29.8944 33.7328 28.4093C37.3927 22.6519 37.5935 17.6257 34.3577 13.6275C29.8497 8.05287 25.9891 10.0634 28.6224 11.7997C35.0271 16.0035 34.6925 24.5482 27.8638 30.991C24.07 34.5779 16.4378 32.6588 14.474 27.6325C11.3721 19.6362 16.4824 9.08097 24.7617 10.7716C27.6182 11.5256 28.7563 7.02476 19.9637 8.71542ZM19.0711 14.4043C18.1115 15.2268 18.7364 15.935 20.5216 14.6784C21.7713 13.8103 22.374 13.6503 23.5121 13.9245C25.0073 14.2672 25.9221 13.8788 25.4536 13.102C25.2973 12.8279 22.0168 11.8683 19.0711 14.4043ZM28.0198 14.1073C26.8148 14.0387 26.5023 14.7241 27.3281 15.6152C28.3546 16.7346 30.4078 16.9174 30.2961 15.8893C30.2292 15.1811 28.9348 14.153 28.0198 14.1073ZM35.786 33.2528C35.9645 34.0068 37.7274 36.657 38.6648 37.6394C39.8029 38.8046 40.2938 39.5814 41.7666 41.2263C44.757 44.5848 41.1864 47.9204 38.3746 43.7166C34.8263 38.4162 31.5234 36.7484 31.5681 36.1315C31.6351 35.3547 35.6297 32.6131 35.786 33.2528Z" fill="#006B99"/>
</svg>
